<svg xmlns="http://www.w3.org/2000/svg" width="827" height="1775" viewBox="474 148 827 1775" fill="none">
  <path d="M1294.62 1486C1294.61 1541.33 1294.57 1595.66 1294.66 1649.99C1294.67 1656.71 1293.77 1663.23 1292.58 1669.8C1290.14 1683.21 1283.17 1692.14 1270.53 1698.39C1138.81 1763.47 1006.88 1828.15 876.044 1894.98C844.908 1910.89 814.45 1918.24 779.804 1917.23C720.192 1915.49 660.491 1916.78 600.828 1916.76C596.614 1916.76 592.28 1917.37 589.214 1916.14C824.167 1681.32 1059.14 1446.48 1294.62 1211.14C1294.62 1301.63 1294.62 1393.31 1294.62 1486Z" fill="black"/>
  <path d="M986.172 871.694C1062.47 915.402 1138.12 958.761 1212.9 1001.62C1089.5 1124.62 966.757 1246.96 843.573 1369.74C841.802 1368.45 843.478 1364.1 843.469 1360.43C843.344 1309.78 843.2 1259.13 843.549 1208.48C843.607 1200.14 840.954 1195.11 833.86 1190.73C747.971 1137.71 662.239 1084.44 576.481 1031.21C572.867 1028.97 569.4 1026.49 567.112 1024.95C687.658 904.5 807.802 784.449 928.037 664.306C929.887 666.4 928.589 670.563 928.597 674.326C928.699 724.309 929.011 774.297 928.4 824.272C928.267 835.149 931.766 841.255 941.255 846.122C956.354 853.865 970.805 862.872 986.172 871.694Z" fill="black"/>
  <path d="M481.865 435.078C484.582 420.518 494.549 412.665 505.136 405.472C562.739 366.34 620.392 327.28 678.05 288.228C733.776 250.485 789.623 212.918 845.224 174.991C866.27 160.635 888.886 153.603 914.607 153.813C988.253 154.416 1061.91 154.003 1135.56 154.035C1139.43 154.037 1143.56 153.177 1145.96 155.204C924.264 376.737 702.69 598.151 481.144 819.539C478.998 815.466 481.276 809.445 481.251 803.74C480.774 694.774 480.444 585.807 480.258 476.84C480.234 463.198 481.189 449.554 481.865 435.078Z" fill="black"/>
  <path d="M1284.39 302.249C1287.13 299.842 1288.82 297.128 1292.38 296.863C1296.01 299.462 1294.55 303.46 1294.56 306.833C1294.67 342.134 1294.68 377.435 1294.58 412.736C1294.51 437.11 1286.85 448.487 1264.25 457.815C1192.58 487.4 1120.88 516.93 1049.15 546.386C1046.89 547.316 1044.73 549.759 1039.91 546.975C1121.51 465.293 1202.69 384.024 1284.39 302.249Z" fill="black"/>
  <path d="M626.739 1592.74C578.798 1640.73 531.358 1688.23 483.987 1735.65C478.62 1731.85 480.258 1727.51 480.282 1723.83C480.502 1689.22 481.639 1654.59 480.943 1620C480.592 1602.54 488.434 1592.84 503.248 1586.16C538.128 1570.42 572.826 1554.28 607.62 1538.36C646.951 1520.35 686.294 1502.38 725.681 1484.5C728.503 1483.22 731.081 1480.34 736.656 1482.68C699.78 1519.61 663.51 1555.92 626.739 1592.74Z" fill="black"/>
</svg>
